<svg xmlns="http://www.w3.org/2000/svg" width="512" height="512" viewBox="0 0 512 512">
  <defs>
    <linearGradient id="bg" x1="0%" y1="0%" x2="100%" y2="100%">
      <stop offset="0%" stop-color="#F0887A"/>
      <stop offset="50%" stop-color="#E8705F"/>
      <stop offset="100%" stop-color="#C05040"/>
    </linearGradient>
    <linearGradient id="glass" x1="0%" y1="0%" x2="0%" y2="100%">
      <stop offset="0%" stop-color="#fff" stop-opacity="0.97"/>
      <stop offset="100%" stop-color="#f0f4f8" stop-opacity="0.91"/>
    </linearGradient>
    <linearGradient id="g2" x1="0%" y1="0%" x2="0%" y2="100%">
      <stop offset="0%" stop-color="#fff" stop-opacity="0.45"/>
      <stop offset="100%" stop-color="#fff" stop-opacity="0.18"/>
    </linearGradient>
    <linearGradient id="g3" x1="0%" y1="0%" x2="0%" y2="100%">
      <stop offset="0%" stop-color="#fff" stop-opacity="0.30"/>
      <stop offset="100%" stop-color="#fff" stop-opacity="0.10"/>
    </linearGradient>
    <linearGradient id="t1" x1="0%" y1="0%" x2="0%" y2="100%">
      <stop offset="0%" stop-color="#E8705F" stop-opacity="0.38"/>
      <stop offset="100%" stop-color="#E8705F" stop-opacity="0.06"/>
    </linearGradient>
    <linearGradient id="t2" x1="0%" y1="0%" x2="0%" y2="100%">
      <stop offset="0%" stop-color="#C05040" stop-opacity="0.32"/>
      <stop offset="100%" stop-color="#C05040" stop-opacity="0.05"/>
    </linearGradient>
    <linearGradient id="t3" x1="0%" y1="0%" x2="0%" y2="100%">
      <stop offset="0%" stop-color="#F0887A" stop-opacity="0.28"/>
      <stop offset="100%" stop-color="#F0887A" stop-opacity="0.04"/>
    </linearGradient>
    <filter id="s1" x="-30%" y="-30%" width="160%" height="160%">
      <feGaussianBlur in="SourceAlpha" stdDeviation="12"/><feOffset dy="8"/>
      <feComponentTransfer><feFuncA type="linear" slope="0.30"/></feComponentTransfer>
      <feMerge><feMergeNode/><feMergeNode in="SourceGraphic"/></feMerge>
    </filter>
    <filter id="s2" x="-30%" y="-30%" width="160%" height="160%">
      <feGaussianBlur in="SourceAlpha" stdDeviation="8"/><feOffset dy="4"/>
      <feComponentTransfer><feFuncA type="linear" slope="0.18"/></feComponentTransfer>
      <feMerge><feMergeNode/><feMergeNode in="SourceGraphic"/></feMerge>
    </filter>
    <clipPath id="cardClip">
      <rect x="-130" y="-175" width="260" height="330" rx="28"/>
    </clipPath>
  </defs>
  <rect width="512" height="512" rx="114" fill="url(#bg)"/>
  <g transform="translate(256,268)">
    <rect x="-130" y="-175" width="260" height="330" rx="28" fill="url(#g3)" stroke="#fff" stroke-opacity="0.22" stroke-width="2.5" transform="rotate(18)" filter="url(#s2)"/>
    <rect x="-130" y="-175" width="260" height="330" rx="28" fill="url(#g2)" stroke="#fff" stroke-opacity="0.35" stroke-width="3" transform="rotate(-8)" filter="url(#s2)"/>
    <rect x="-130" y="-175" width="260" height="330" rx="28" fill="url(#glass)" stroke="#fff" stroke-opacity="0.7" stroke-width="4" transform="rotate(-1)" filter="url(#s1)"/>
    <g transform="rotate(-1)" clip-path="url(#cardClip)">
      <path d="M-130,85 C-70,78 -10,55 30,30 C70,5 100,-5 130,-15 L130,155 L-130,155 Z" fill="url(#t3)"/>
      <path d="M-130,85 C-70,78 -10,55 30,30 C70,5 100,-5 130,-15" stroke="#F0887A" stroke-width="3.5" stroke-linecap="round" fill="none" opacity="0.55"/>
      <path d="M-130,60 C-60,35 -5,-5 35,-45 C75,-85 105,-100 130,-115 L130,155 L-130,155 Z" fill="url(#t2)"/>
      <path d="M-130,60 C-60,35 -5,-5 35,-45 C75,-85 105,-100 130,-115" stroke="#C05040" stroke-width="4" stroke-linecap="round" fill="none" opacity="0.65"/>
      <path d="M-130,40 C-50,10 5,-50 45,-95 C85,-140 110,-155 130,-168 L130,155 L-130,155 Z" fill="url(#t1)"/>
      <path d="M-130,40 C-50,10 5,-50 45,-95 C85,-140 110,-155 130,-168" stroke="#E8705F" stroke-width="4.5" stroke-linecap="round" fill="none" opacity="0.80"/>
    </g>
  </g>
</svg>